<svg id="Layer_1" data-name="Layer 1" xmlns="http://www.w3.org/2000/svg" viewBox="0 0 141.73 141.73"><defs><style>.cls-1{fill:#297d3e;}</style></defs><path class="cls-1" d="M141.64,101.41a122.13,122.13,0,0,0-1.53-12.35c-.25-1.4-.53-2.79-.83-4.18q.36,2,.66,4c.37,2.47.68,4.95.91,7.44-.85-7.69-2.54-14.86-3.47-19.42.7,2.63,1.34,5.29,1.9,8q-.74-4.36-1.72-8.7c-1.86-8.42-4.2-16.75-6.82-25-.66-2.06-1.33-4.11-2-6.17s-1.48-4.09-2.24-6.11a123,123,0,0,0-5.18-12,56.35,56.35,0,0,0-3.37-5.8,33.19,33.19,0,0,0-4.33-5.34,24.84,24.84,0,0,0-12.14-6.86A38.18,38.18,0,0,0,88,8.57,104.13,104.13,0,0,0,75.3,11.28c-2,.55-4.11,1.16-6.16,1.79s-4,1.35-6,2q-6,2.09-11.94,4.46c-3.94,1.61-7.84,3.32-11.69,5.16s-7.62,3.84-11.33,6c-.66.38-1.33.77-2,1.17q-4.52,2.72-8.8,5.83a54.66,54.66,0,0,0-9.76,8.78A32.29,32.29,0,0,0,1,58.27c-.15.56-.33,1.11-.46,1.67L.29,61.66l-.15.86c0,.28,0,.58-.05.87L0,65.14c0,.58.06,1.16.09,1.75a12.66,12.66,0,0,0,.17,1.74A23.07,23.07,0,0,0,1,72c.18.55.33,1.12.53,1.66l.69,1.6.34.79c.13.26.28.5.42.76l.84,1.5a7.38,7.38,0,0,0,.46.72l.48.69,1,1.39c.7.87,1.36,1.77,2.09,2.62a58.91,58.91,0,0,0,9.92,8.74,124.8,124.8,0,0,0,11,6.87c1.86,1.06,3.74,2.07,5.63,3.06,11.76,7.41,26.29,14,41.62,19.62,3.53,1.53,7.09,3,10.68,4.44,4,1.55,8,3,12.09,4.21a70.46,70.46,0,0,0,12.52,2.66c1.06.12,2.13.15,3.2.23s2.13,0,3.2,0l1.59-.12a12.05,12.05,0,0,0,1.59-.15l1.58-.27a6.88,6.88,0,0,0,.79-.15l.77-.21,1.55-.43c.5-.18,1-.39,1.49-.59a21.2,21.2,0,0,0,2.86-1.43c.46-.26.88-.61,1.32-.91a9.92,9.92,0,0,0,1.27-1l.09-.09a20.91,20.91,0,0,0,7.3-11.32,1.83,1.83,0,0,0,.08-.25l.44-1.47a10.84,10.84,0,0,0,.38-1.49A45,45,0,0,0,141.64,101.41ZM59.86,95.23A1.64,1.64,0,0,1,58.11,93L59.3,82.17l.4-4,8.29,17S62.29,95.26,59.86,95.23ZM110,103c-2,0-2.8-.52-1.51-2.46a1.46,1.46,0,0,0,.22-.86,135,135,0,0,0-2-14.13c-1.75,9.17-6.42,15.23-15.5,17L90.7,102c.42-.35.82-.74,1.27-1,4.42-3,6-7,4.83-12.28a23,23,0,0,0-7.41-12.11c-3-2.64-6.21-4.94-9.29-7.46-2.49-2-4.9-4.19-7.35-6.28-.53-.45-1.07-.87-1.61-1.3l-.54.39c1.07,2.35,2.08,4.72,3.22,7q5,10.09,10,20.15c1.42,2.82,3.25,5.22,6.6,5.95.24.05.43.36,1.05.93a29.7,29.7,0,0,1-3.8,2.39,10.15,10.15,0,0,1-13.23-4.31C68.77,83,63.36,71.8,57.83,60.65l-1.31-2.54a17.56,17.56,0,0,0-.85,2.64Q53.42,77.7,51.24,94.67a23.86,23.86,0,0,0-.15,2.93,3.25,3.25,0,0,0,2.84,3.49c1.42.31,2.84.56,4.49.87-1.73,1.48-19.08,1.55-21.11.2a8.61,8.61,0,0,1,1.46-.58c3.59-.61,4.74-1.54,5.41-5.23,1-5.54,1.79-11.11,2.64-16.67q3.2-21,6.35-42l.33-2.21a3,3,0,0,1,.06-.43l.81-5.55,2.4,4.5a1.43,1.43,0,0,1,.14.2l.74,1.44.16.3h0c1.51,3,3,6,4.43,8.93a4.69,4.69,0,0,0,1.67,2,11.26,11.26,0,0,0,.32-1.81c0-9.27,5.67-15.32,14.61-17.07,5.76-1.13,11.75-1.07,17.65-1.37,2-.1,2.34.87,1.26,2.55s-2.84,2-4.69,2.11c-3.29.22-6.6.37-9.85.91-3.69.6-6.92,2.21-8.35,6a9.27,9.27,0,0,0,2.5,10.34,105.9,105.9,0,0,0,10.43,8.84c5.23,4,10.51,7.8,14.23,13.32,1.18,1.76,2.09,3.71,3.12,5.57l.68-.16q-1.23-9.12-2.47-18.22l-.69-.23a12.46,12.46,0,0,0-1.43,2.19c-.74,1.85-1.54,1.73-3,.61-1.89-1.45-2.12-2.77-1-4.94,2-3.94,3.86-7.93,5.74-11.92l6.67-16,.34,2.57L111.08,38c1.07,7,2.07,14,3.1,21,1.33,8.9,2.62,17.8,4,26.69h0l.07.4q.6,3.93,1.21,7.86.1.6.21,1.14l1.25,7.93C117.26,103,113.63,103,110,103Z"/></svg>